HIERARCHY
ROOT Hips
{
 OFFSET 0.000000 0.000000 0.000000
 CHANNELS 6 Xposition Yposition Zposition Yrotation Xrotation Zrotation
 JOINT Chest
 {
  OFFSET 0.000000 9.585900 0.002600
  CHANNELS 3 Yrotation Xrotation Zrotation
  JOINT Chest2
  {
   OFFSET 0.000000 9.601200 -0.005300
   CHANNELS 3 Yrotation Xrotation Zrotation
   JOINT Chest3
   {
    OFFSET 0.000000 9.561800 0.000000
    CHANNELS 3 Yrotation Xrotation Zrotation
    JOINT Chest4
    {
     OFFSET 0.000000 9.552100 0.000000
     CHANNELS 3 Yrotation Xrotation Zrotation
     JOINT Neck
     {
      OFFSET 0.000000 14.453000 0.000000
      CHANNELS 3 Yrotation Xrotation Zrotation
      JOINT Head
      {
       OFFSET 0.000000 8.936500 -0.011300
       CHANNELS 3 Yrotation Xrotation Zrotation
       End Site
       {
        OFFSET 0.000000 17.073600 -0.006000
       }
      }
     }
     JOINT RightCollar
     {
      OFFSET -2.921100 9.558500 0.000000
      CHANNELS 3 Yrotation Xrotation Zrotation
      JOINT RightShoulder
      {
       OFFSET -13.519700 0.000000 0.000000
       CHANNELS 3 Yrotation Xrotation Zrotation
       JOINT RightElbow
       {
        OFFSET 0.000000 -29.696600 0.000000
        CHANNELS 3 Yrotation Xrotation Zrotation
        JOINT RightWrist
        {
         OFFSET 0.000000 -24.004700 0.000000
         CHANNELS 3 Yrotation Xrotation Zrotation
         End Site
         {
          OFFSET 0.000000 -17.728500 0.000000
         }
        }
       }
      }
     }
     JOINT LeftCollar
     {
      OFFSET 2.921100 9.558500 0.000000
      CHANNELS 3 Yrotation Xrotation Zrotation
      JOINT LeftShoulder
      {
       OFFSET 13.519700 0.000000 0.000000
       CHANNELS 3 Yrotation Xrotation Zrotation
       JOINT LeftElbow
       {
        OFFSET 0.000000 -29.696600 0.000000
        CHANNELS 3 Yrotation Xrotation Zrotation
        JOINT LeftWrist
        {
         OFFSET 0.000000 -24.004700 0.000000
         CHANNELS 3 Yrotation Xrotation Zrotation
         End Site
         {
          OFFSET 0.000000 -17.728500 0.000000
         }
        }
       }
      }
     }
    }
   }
  }
 }
 JOINT RightHip
 {
  OFFSET -7.771700 -0.012900 -0.001300
  CHANNELS 3 Yrotation Xrotation Zrotation
  JOINT RightKnee
  {
   OFFSET 0.000000 -40.869800 0.001200
   CHANNELS 3 Yrotation Xrotation Zrotation
   JOINT RightAnkle
   {
    OFFSET 0.000000 -39.717900 0.002100
    CHANNELS 3 Yrotation Xrotation Zrotation
    JOINT RightToe
    {
     OFFSET 0.000000 -4.965400 11.033500
     CHANNELS 3 Yrotation Xrotation Zrotation
     End Site
     {
      OFFSET 0.000000 -1.423100 5.872300
     }
    }
   }
  }
 }
 JOINT LeftHip
 {
  OFFSET 7.771700 -0.012900 -0.001300
  CHANNELS 3 Yrotation Xrotation Zrotation
  JOINT LeftKnee
  {
   OFFSET 0.000000 -40.869800 0.001200
   CHANNELS 3 Yrotation Xrotation Zrotation
   JOINT LeftAnkle
   {
    OFFSET 0.000000 -39.717900 0.002100
    CHANNELS 3 Yrotation Xrotation Zrotation
    JOINT LeftToe
    {
     OFFSET 0.000000 -4.965400 11.033500
     CHANNELS 3 Yrotation Xrotation Zrotation
     End Site
     {
      OFFSET 0.000000 -1.423100 5.872300
     }
    }
   }
  }
 }
}
MOTION
Frames: 8
Frame Time: 0.008333
-108.686404 58.424746 96.668256 178.352603 -29.342803 -1.708801 1.490288 20.802113 2.710583 0.168178 2.661066 0.282083 0.239161 4.413669 0.485080 1.225589 17.752088 2.121555 -2.085057 11.188313 -2.203997 -3.078596 -14.991044 -3.299814 3.559076 -3.863623 -0.061427 14.464095 -22.311751 -20.201072 157.542578 -74.648805 -116.849127 21.869721 -13.054969 -49.583667 -6.719170 -4.558768 -4.472907 -5.845037 -17.599289 2.140867 36.843787 -23.641198 -76.545072 12.796086 0.533307 28.042820 5.666662 -44.023636 -0.371962 -12.996412 68.378321 -18.284613 5.518086 17.060556 9.153029 -0.263739 -13.152426 1.704773 -6.982308 -43.073528 2.494214 24.338960 65.710303 20.730472 -16.941181 5.304190 -1.504860 -0.073653 -0.434252 -0.012449
-108.683618 58.426481 96.691487 178.362457 -29.409057 -1.718794 1.525745 20.817911 2.715367 0.176265 2.626663 0.279645 0.247093 4.396946 0.485363 1.260821 17.721200 2.130727 -2.341072 11.464822 -2.056287 -3.602734 -14.518605 -2.933819 3.472571 -3.727671 -0.031574 14.646555 -22.268950 -20.114677 157.118887 -74.611939 -116.630662 21.840029 -13.031429 -49.452106 -6.773299 -4.431489 -4.399802 -5.917416 -17.478705 1.922397 36.999127 -23.705796 -76.516959 12.759327 0.547152 27.967783 5.851319 -43.999725 -0.486323 -13.330243 68.383513 -18.456739 5.511996 17.112962 9.108403 -0.283295 -13.175232 1.740834 -6.958550 -43.005260 2.508849 24.265646 65.696462 20.639756 -16.954189 5.301417 -1.493812 -0.059835 -0.406541 -0.007690
-108.673979 58.425944 96.716053 178.343344 -29.464151 -1.754274 1.614334 20.755100 2.759699 0.158890 2.663509 0.292271 0.254169 4.382225 0.486838 1.292894 17.693476 2.143948 -2.539421 11.730061 -1.937994 -4.033248 -14.024576 -2.625937 3.396166 -3.596189 -0.022607 14.930234 -22.235178 -20.172674 156.920686 -74.557000 -116.651431 21.815654 -13.003850 -49.366503 -6.810091 -4.315103 -4.338423 -6.049673 -17.374026 1.791202 37.159095 -23.768123 -76.520648 12.728653 0.570772 27.859550 6.003157 -43.976344 -0.527522 -13.752586 68.326977 -18.707894 5.528151 17.215566 9.038264 -0.211783 -13.213895 1.765225 -6.952570 -42.940983 2.571492 24.218477 65.677349 20.576658 -16.929583 5.282668 -1.473974 -0.076625 -0.371529 -0.015415
-108.666296 58.421499 96.744924 178.327556 -29.487857 -1.783661 1.687028 20.689260 2.803699 0.155811 2.671352 0.296548 0.262196 4.367777 0.489105 1.329388 17.665714 2.160822 -2.696122 11.992219 -1.835292 -4.375158 -13.535390 -2.368009 3.293929 -3.465988 0.002042 15.287484 -22.205534 -20.369827 156.969823 -74.501848 -116.895248 21.789627 -12.965052 -49.349473 -6.853092 -4.201036 -4.270693 -6.213630 -17.285327 1.736313 37.280877 -23.820152 -76.539855 12.697853 0.586841 27.723395 6.092802 -43.976209 -0.538230 -13.978994 68.257243 -18.816071 5.490814 17.364823 8.959209 -0.166392 -13.274789 1.801147 -6.956674 -42.910541 2.626129 24.195138 65.653153 20.533850 -16.912407 5.235783 -1.450686 -0.100400 -0.300973 -0.025094
-108.658003 58.417573 96.771552 178.299447 -29.529933 -1.818366 1.762629 20.676889 2.863370 0.169845 2.648620 0.297930 0.243636 4.395494 0.492041 1.397245 17.600419 2.179377 -2.812743 12.238107 -1.746892 -4.632673 -13.076185 -2.155829 3.176664 -3.344040 0.035642 15.660207 -22.191074 -20.663334 157.241023 -74.463613 -117.302111 21.759141 -12.918822 -49.407084 -6.904569 -4.102229 -4.194748 -6.390855 -17.210687 1.741564 37.353012 -23.869249 -76.566040 12.676066 0.591151 27.570978 6.100383 -43.952054 -0.485360 -13.965722 68.195206 -18.754180 5.456807 17.512732 8.903476 -0.184789 -13.337603 1.836905 -6.966991 -42.865069 2.690743 24.188675 65.633703 20.510610 -16.882247 5.230335 -1.422217 -0.137238 -0.274181 -0.043206
-108.647480 58.412897 96.799383 178.245497 -29.570665 -1.866024 1.850601 20.696612 2.947060 0.201335 2.601482 0.300003 0.230248 4.415260 0.492401 1.464463 17.551099 2.206743 -2.890199 12.457464 -1.671586 -4.809144 -12.666381 -1.985628 3.065202 -3.245035 0.069897 15.999843 -22.188338 -21.006548 157.696811 -74.452013 -117.818913 21.729547 -12.869925 -49.526386 -6.958273 -4.029118 -4.114703 -6.569886 -17.141456 1.790726 37.393647 -23.935380 -76.600058 12.679755 0.599169 27.417160 6.131525 -43.932807 -0.410798 -13.854405 68.136901 -18.585942 5.394912 17.678503 8.841823 -0.169190 -13.411690 1.873362 -6.963931 -42.815194 2.784455 24.146179 65.623210 20.471380 -16.862997 5.192816 -1.410915 -0.157167 -0.223297 -0.049982
-108.644757 58.404940 96.832761 178.196386 -29.577928 -1.885004 1.943294 20.640730 3.003252 0.200372 2.610561 0.308156 0.247425 4.390559 0.491351 1.497544 17.557366 2.241938 -2.927722 12.643992 -1.608186 -4.904464 -12.317991 -1.854516 2.969766 -3.177906 0.104008 16.298259 -22.189492 -21.367278 158.273295 -74.465459 -118.381343 21.702840 -12.821910 -49.691832 -7.003045 -3.989991 -4.035587 -6.734988 -17.069312 1.868437 37.397730 -24.001035 -76.637812 12.693162 0.601764 27.271980 6.044314 -43.952248 -0.310958 -13.450290 68.099063 -18.228890 5.334700 17.869053 8.792076 -0.190401 -13.508635 1.906486 -6.941750 -42.802638 2.838442 24.114367 65.593500 20.428968 -16.845516 5.187904 -1.387193 -0.184341 -0.189187 -0.063544
-108.642101 58.397688 96.865939 178.138484 -29.594298 -1.914171 2.051223 20.577429 3.091132 0.176095 2.663988 0.299633 0.283097 4.354876 0.496030 1.500443 17.578923 2.283354 -2.923883 12.795607 -1.558541 -4.915514 -12.035203 -1.766034 2.918949 -3.148173 0.127461 16.547934 -22.190861 -21.717817 158.872753 -74.502522 -118.907010 21.674062 -12.784396 -49.884091 -7.026834 -3.990991 -3.964046 -6.867247 -16.992424 1.961296 37.361786 -24.051799 -76.681745 12.711365 0.592151 27.151684 5.935284 -43.962500 -0.183464 -12.938579 68.061019 -17.782370 5.273178 18.082603 8.751857 -0.231718 -13.624433 1.940951 -6.921288 -42.779470 2.906844 24.102987 65.563558 20.410814 -16.836066 5.176763 -1.367905 -0.204133 -0.153236 -0.074430
